<?xml version="1.0" encoding="UTF-8"?>
<svg xmlns="http://www.w3.org/2000/svg" xmlns:xlink="http://www.w3.org/1999/xlink" width="30px" height="30px" viewBox="0 0 45 45" version="1.1">
<defs>
<linearGradient id="linear0" gradientUnits="userSpaceOnUse" x1="-5.44" y1="12.16" x2="-5.44" y2="30.08" gradientTransform="matrix(3.749986,0,0,3.125,36.546531,1)">
<stop offset="0" style="stop-color:rgb(27.058824%,0.392157%,0%);stop-opacity:1;"/>
<stop offset="0.467635" style="stop-color:rgb(76.470588%,0%,0%);stop-opacity:1;"/>
<stop offset="1" style="stop-color:rgb(27.058824%,0.392157%,0%);stop-opacity:1;"/>
</linearGradient>
<linearGradient id="linear1" gradientUnits="userSpaceOnUse" x1="8.162232" y1="0.814272" x2="8.265284" y2="13.08" gradientTransform="matrix(3.126067,0,0,-3.124312,-90.15084,44.347094)">
<stop offset="0" style="stop-color:rgb(79.607843%,67.058824%,44.705882%);stop-opacity:1;"/>
<stop offset="0.46009" style="stop-color:rgb(87.843137%,76.862745%,56.078431%);stop-opacity:1;"/>
<stop offset="1" style="stop-color:rgb(67.45098%,56.470588%,36.862745%);stop-opacity:1;"/>
</linearGradient>
<linearGradient id="linear2" gradientUnits="userSpaceOnUse" x1="8.485281" y1="3.583884" x2="8.485281" y2="5.771495" gradientTransform="matrix(3.126067,0,0,-3.124312,-90.15084,44.347094)">
<stop offset="0" style="stop-color:rgb(88.627451%,79.215686%,61.568627%);stop-opacity:1;"/>
<stop offset="1" style="stop-color:rgb(90.588235%,82.352941%,65.490196%);stop-opacity:1;"/>
</linearGradient>
<linearGradient id="linear3" gradientUnits="userSpaceOnUse" x1="12" y1="13.705528" x2="12" y2="12.517932" gradientTransform="matrix(3.126067,0,0,-3.124312,-90.15084,44.347094)">
<stop offset="0" style="stop-color:rgb(28.627451%,8.627451%,4.705882%);stop-opacity:1;"/>
<stop offset="1" style="stop-color:rgb(59.607843%,39.607843%,20%);stop-opacity:1;"/>
</linearGradient>
<linearGradient id="linear4" gradientUnits="userSpaceOnUse" x1="8.162232" y1="0.814272" x2="8.265284" y2="13.08" gradientTransform="matrix(-3.126048,0,0,-3.124312,45.150836,44.347094)">
<stop offset="0" style="stop-color:rgb(79.607843%,67.058824%,44.705882%);stop-opacity:1;"/>
<stop offset="0.46009" style="stop-color:rgb(87.843137%,76.862745%,56.078431%);stop-opacity:1;"/>
<stop offset="1" style="stop-color:rgb(67.45098%,56.470588%,36.862745%);stop-opacity:1;"/>
</linearGradient>
<linearGradient id="linear5" gradientUnits="userSpaceOnUse" x1="7" y1="10.456078" x2="7" y2="8.614136" gradientTransform="matrix(3.126067,0,0,-3.124312,-90.15084,44.347094)">
<stop offset="0" style="stop-color:rgb(78.039216%,69.019608%,51.372549%);stop-opacity:1;"/>
<stop offset="1" style="stop-color:rgb(82.745098%,73.333333%,55.686275%);stop-opacity:1;"/>
</linearGradient>
<linearGradient id="linear6" gradientUnits="userSpaceOnUse" x1="6.680893" y1="0.552842" x2="6.373914" y2="13.418021" gradientTransform="matrix(-3.126048,0,0,-3.124312,45.150836,44.347094)">
<stop offset="0" style="stop-color:rgb(27.058824%,0.392157%,0%);stop-opacity:1;"/>
<stop offset="0.467635" style="stop-color:rgb(76.470588%,0%,0%);stop-opacity:1;"/>
<stop offset="1" style="stop-color:rgb(27.058824%,0.392157%,0%);stop-opacity:1;"/>
</linearGradient>
<linearGradient id="linear7" gradientUnits="userSpaceOnUse" x1="1.711872" y1="4.637956" x2="1.685124" y2="10.08" gradientTransform="matrix(-3.126048,0,0,-3.124312,45.150836,44.347094)">
<stop offset="0" style="stop-color:rgb(28.627451%,8.627451%,4.705882%);stop-opacity:1;"/>
<stop offset="0.466992" style="stop-color:rgb(60%,40%,20%);stop-opacity:1;"/>
<stop offset="1" style="stop-color:rgb(28.627451%,8.627451%,4.705882%);stop-opacity:1;"/>
</linearGradient>
</defs>
<g id="surface1">
<path style=" stroke:none;fill-rule:nonzero;fill:rgb(82.745098%,78.431373%,63.529412%);fill-opacity:1;" d="M -64.636719 94.007812 L 19.535156 94.007812 L 19.535156 40.484375 L -64.636719 40.484375 Z M -64.636719 94.007812 "/>
<path style=" stroke:none;fill-rule:nonzero;fill:url(#linear0);" d="M 15.320312 39 L 17.679688 39 C 17.855469 39 18 39.144531 18 39.320312 L 18 94.679688 C 18 94.855469 17.855469 95 17.679688 95 L 15.320312 95 C 15.144531 95 15 94.855469 15 94.679688 L 15 39.320312 C 15 39.144531 15.144531 39 15.320312 39 Z M 15.320312 39 "/>
<path style=" stroke:none;fill-rule:nonzero;fill:url(#linear1);" d="M -67.457031 2.972656 L -67.617188 3.269531 C -67.703125 3.433594 -68.097656 3.890625 -68.492188 4.285156 C -69.730469 5.535156 -70.773438 7.148438 -72.679688 10.765625 C -73.539062 12.402344 -73.972656 13.328125 -74.246094 14.113281 C -75.097656 16.5625 -75.496094 19.535156 -75.511719 23.558594 C -75.519531 25.785156 -75.453125 26.433594 -75.046875 28.089844 C -74.140625 31.804688 -71.371094 36.757812 -68.226562 40.296875 C -67.804688 40.769531 -67.316406 41.347656 -67.144531 41.582031 C -66.96875 41.8125 -66.804688 42.03125 -66.777344 42.066406 C -66.746094 42.097656 -65.972656 41.964844 -65.054688 41.765625 C -63.644531 41.464844 -63.125 41.390625 -61.710938 41.296875 C -56.171875 40.925781 -51.59375 40.820312 -47.003906 40.964844 L -24.300781 41.027344 L 2.003906 40.964844 C 6.59375 40.820312 11.171875 40.925781 16.710938 41.296875 C 18.125 41.390625 18.644531 41.464844 20.050781 41.765625 C 20.96875 41.964844 21.746094 42.097656 21.777344 42.066406 C 21.804688 42.03125 21.96875 41.8125 22.144531 41.582031 C 22.316406 41.347656 22.800781 40.769531 23.222656 40.296875 C 26.371094 36.757812 29.140625 31.804688 30.046875 28.089844 C 30.453125 26.433594 30.519531 25.785156 30.511719 23.558594 C 30.496094 19.535156 30.097656 16.5625 29.246094 14.113281 C 28.972656 13.328125 28.539062 12.402344 27.675781 10.765625 C 25.773438 7.148438 24.730469 5.535156 23.492188 4.285156 C 23.097656 3.890625 22.703125 3.433594 22.617188 3.269531 L 22.457031 2.972656 L 20.671875 3.398438 C 17.34375 4.191406 14.011719 4.734375 10.4375 5.070312 C 7.867188 5.308594 6.273438 5.386719 2.910156 5.441406 L -24.273438 5.492188 L -47.910156 5.441406 C -51.273438 5.433594 -52.867188 5.308594 -55.4375 5.070312 C -59.007812 4.734375 -62.34375 4.191406 -65.671875 3.398438 Z M -67.457031 2.972656 "/>
<path style=" stroke:none;fill-rule:nonzero;fill:url(#linear2);" d="M -81.75 25.351562 L -80.148438 34.101562 L -68.269531 33.554688 L -22.9375 33.269531 L 23.269531 33.554688 L 35.148438 34.101562 L 36.75 25.351562 Z M -81.75 25.351562 "/>
<path style=" stroke:none;fill-rule:nonzero;fill:url(#linear3);" d="M -45.28125 1.40625 C -45.445312 1.417969 -46.269531 1.460938 -47.113281 1.503906 C -47.957031 1.546875 -50.675781 1.679688 -53.160156 1.796875 C -58.097656 2.03125 -58.207031 2.046875 -59.285156 2.699219 C -60.113281 3.199219 -61.011719 4.023438 -60.851562 4.136719 C -60.703125 4.238281 -57.941406 4.699219 -56.304688 4.894531 C -53.847656 5.183594 -52.496094 5.257812 -48.691406 5.320312 L -21.847656 5.378906 L 3.695312 5.320312 C 7.496094 5.261719 8.847656 5.183594 11.304688 4.894531 C 12.941406 4.699219 15.703125 4.238281 15.851562 4.136719 C 16.011719 4.023438 15.113281 3.199219 14.285156 2.699219 C 13.207031 2.046875 13.097656 2.03125 8.160156 1.796875 C 5.675781 1.679688 2.957031 1.546875 2.113281 1.503906 C 1.269531 1.460938 0.445312 1.417969 0.28125 1.40625 L -21.847656 1.390625 Z M -45.28125 1.40625 "/>
<path style=" stroke:none;fill-rule:nonzero;fill:url(#linear4);" d="M 30.683594 3.535156 C 32.753906 6.449219 32.578125 6.714844 33.589844 8.585938 C 35.714844 12.519531 36.710938 16.550781 36.851562 21.832031 C 37.054688 29.425781 35.4375 35.546875 31.027344 40.625 C 30.304688 41.457031 28.414062 43.671875 28.367188 43.671875 C 28.316406 43.671875 25.273438 42.726562 25.261719 42.710938 C 25.25 42.703125 25.417969 42.503906 25.628906 42.269531 C 28.339844 39.273438 31.222656 34.550781 32.488281 31.042969 C 33.582031 28.007812 33.441406 25.871094 33.292969 22.210938 C 33.089844 17.296875 32.933594 13.960938 31.640625 11.222656 C 31.148438 10.1875 29.300781 6.796875 28.640625 5.714844 C 27.640625 4.082031 26.683594 2.765625 25.984375 2.0625 L 25.65625 1.734375 L 26.832031 1.308594 L 28.578125 0.578125 Z M 30.683594 3.535156 "/>
<path style=" stroke:none;fill-rule:nonzero;fill:url(#linear5);" d="M -80.148438 11.101562 L -81.75 17.433594 L 36.75 17.433594 L 35.148438 11.101562 L 23.269531 11.496094 L -22.902344 11.710938 L -68.269531 11.496094 Z M -80.148438 11.101562 "/>
<path style=" stroke:none;fill-rule:nonzero;fill:url(#linear6);" d="M 31.171875 9.597656 C 32.144531 11.417969 32.777344 13.355469 33.191406 15.339844 C 34.328125 20.792969 34.175781 22.757812 33.878906 26.042969 C 33.613281 28.996094 32.179688 32.691406 31.683594 33.898438 C 30.203125 37.492188 28.410156 39.957031 25.46875 43.164062 L 24.902344 43.453125 L 23.105469 42.550781 C 22.234375 42.113281 21.363281 42.171875 21.351562 42.164062 C 21.328125 42.144531 22.09375 41.246094 22.800781 40.464844 C 26.078125 36.847656 28.5625 32.179688 29.519531 28.476562 C 30.085938 24.722656 30.945312 20.308594 29.058594 14.371094 C 28.527344 12.839844 26.144531 8.46875 24.734375 6.433594 C 24.152344 5.597656 23.695312 5.042969 22.9375 4.265625 C 22.550781 3.871094 22.1875 3.46875 22.128906 3.375 L 22.023438 3.203125 L 22.410156 3.101562 C 22.625 3.042969 23.425781 2.800781 24.1875 2.558594 C 24.953125 2.316406 25.65625 1.734375 25.65625 1.734375 C 27.371094 3.480469 28.328125 4.359375 31.171875 9.597656 Z M 31.171875 9.597656 "/>
<path style="fill:none;stroke-width:0.3;stroke-linecap:butt;stroke-linejoin:miter;stroke:rgb(21.176471%,21.176471%,21.176471%);stroke-opacity:1;stroke-miterlimit:4;" d="M 2.967272 4.198857 C 1.785169 4.614665 0.501849 4.691063 0.198201 7.004304 C 0.279424 9.124671 1.337819 10.06149 2.979768 10.132879 " transform="matrix(-3.126048,0,0,-3.118933,45.150836,44.271735)"/>
<path style="fill:none;stroke-width:0.436674;stroke-linecap:butt;stroke-linejoin:miter;stroke:rgb(21.176471%,21.176471%,21.176471%);stroke-opacity:1;stroke-miterlimit:4;" d="M 20.68387 13.0575 L 20.68387 29.60375 " transform="matrix(3.124989,0,0,3.125,-45.000153,1)"/>
<path style="fill:none;stroke-width:0.300018;stroke-linecap:butt;stroke-linejoin:miter;stroke:rgb(21.176471%,21.176471%,21.176471%);stroke-opacity:1;stroke-miterlimit:4;" d="M 19.683866 1.1075 C 19.632616 0.88375 19.008864 0.30625 18.292611 0.215 L 14.382598 0.0612499 L 0.0175491 0.0612499 L -3.892464 0.215 C -4.608717 0.30625 -5.232469 0.88375 -5.283719 1.1075 " transform="matrix(3.124989,0,0,3.125,-45.000153,1)"/>
<path style=" stroke:none;fill-rule:nonzero;fill:url(#linear7);" d="M 36.289062 12.996094 C 36.359375 13.007812 36.707031 13.0625 37.066406 13.117188 C 41 13.703125 43.492188 16.164062 44.226562 20.195312 C 44.511719 21.75 44.53125 22.410156 44.324219 23.421875 C 43.882812 25.558594 43.042969 27.191406 41.84375 28.242188 C 41.171875 28.832031 40.671875 29.140625 39.695312 29.570312 C 38.949219 29.898438 36.628906 30.660156 36.5625 30.597656 C 36.546875 30.585938 36.632812 30.039062 36.753906 29.386719 C 37.183594 27.082031 37.273438 25.9375 37.269531 22.957031 C 37.269531 19.980469 37.167969 18.699219 36.757812 16.4375 C 36.574219 15.429688 36.148438 13.605469 35.976562 13.09375 C 35.933594 12.957031 35.984375 12.941406 36.289062 12.996094 Z M 36.289062 12.996094 "/>
<path style="fill:none;stroke-width:0.3;stroke-linecap:butt;stroke-linejoin:miter;stroke:rgb(21.176471%,21.176471%,21.176471%);stroke-opacity:1;stroke-miterlimit:4;" d="M 14.548299 1.139167 C 12.155367 1.224332 12.001669 1.092827 8.554097 0.863632 L 5.29646 0.135969 C 4.374275 1.251886 2.593633 2.837464 2.583636 6.786382 C 2.57364 10.944455 4.296801 12.602674 5.301458 14.009155 C 9.223868 12.362208 12.850129 12.518762 14.530805 12.525024 L 28.750948 12.525024 C 30.431624 12.518762 34.057885 12.362208 37.980295 14.009155 C 38.984952 12.602674 40.708113 10.944455 40.698117 6.786382 C 40.68812 2.837464 38.907478 1.251886 37.985293 0.135969 L 34.727656 0.863632 C 31.280084 1.092827 31.126386 1.224332 28.733454 1.139167 Z M 14.548299 1.139167 " transform="matrix(3.126067,0,0,-3.118933,-90.15084,44.271735)"/>
</g>
</svg>
