<?xml version="1.0" encoding="UTF-8"?>
<svg xmlns="http://www.w3.org/2000/svg" xmlns:xlink="http://www.w3.org/1999/xlink" width="30px" height="30px" viewBox="0 0 45 45" version="1.1">
<g id="surface1">
<rect x="0" y="0" width="45" height="45" style="fill:rgb(82.745098%,78.431373%,63.529412%);fill-opacity:1;stroke:none;"/>
<path style="fill:none;stroke-width:0.3;stroke-linecap:butt;stroke-linejoin:miter;stroke:rgb(21.176471%,21.176471%,21.176471%);stroke-opacity:1;stroke-miterlimit:4;" d="M 14.54825 1.139167 C 12.155325 1.224332 12.001628 1.092827 8.554068 0.863632 L 5.296441 0.135969 C 4.37426 1.251886 2.593624 2.837464 2.583627 6.786381 C 2.573631 10.944455 4.296786 12.602674 5.30144 14.009155 C 9.225086 12.362207 12.850085 12.518761 14.530756 12.525024 L 28.75085 12.525024 C 30.43152 12.518761 34.057769 12.362207 37.980165 14.009155 C 38.984819 12.602674 40.707974 10.944455 40.697978 6.786381 C 40.687981 2.837464 38.907346 1.251886 37.986413 0.135969 L 34.727538 0.863632 C 31.279977 1.092827 31.12628 1.224332 28.733356 1.139167 Z M 14.54825 1.139167 " transform="matrix(3.126078,0,0,-3.118933,-45.15084,-0.728266)"/>
<path style="fill:none;stroke-width:0.3;stroke-linecap:butt;stroke-linejoin:miter;stroke:rgb(21.176471%,21.176471%,21.176471%);stroke-opacity:1;stroke-miterlimit:4;" d="M 14.54825 1.139127 C 12.155325 1.224292 12.001628 1.092787 8.554068 0.863592 L 5.296441 0.135929 C 4.37426 1.251846 2.593624 2.837424 2.583627 6.786341 C 2.573631 10.944415 4.296786 12.602634 5.30144 14.010368 C 9.225086 12.362167 12.850085 12.518721 14.530756 12.524984 L 28.75085 12.524984 C 30.43152 12.518721 34.057769 12.362167 37.980165 14.010368 C 38.984819 12.602634 40.707974 10.944415 40.697978 6.786341 C 40.687981 2.837424 38.907346 1.251846 37.986413 0.135929 L 34.727538 0.863592 C 31.279977 1.092787 31.12628 1.224292 28.733356 1.139127 Z M 14.54825 1.139127 " transform="matrix(3.126078,0,0,3.118933,-45.15084,45.728391)"/>
</g>
</svg>
