<?xml version="1.0" encoding="UTF-8"?>
<svg xmlns="http://www.w3.org/2000/svg" xmlns:xlink="http://www.w3.org/1999/xlink" width="30px" height="30px" viewBox="0 0 45 45" version="1.1">
<defs>
<linearGradient id="linear0" gradientUnits="userSpaceOnUse" x1="8.162232" y1="0.814272" x2="8.265284" y2="13.08" gradientTransform="matrix(3.126078,0,0,3.124312,-45.15084,0.653034)">
<stop offset="0" style="stop-color:rgb(79.607843%,67.058824%,44.705882%);stop-opacity:1;"/>
<stop offset="0.46009" style="stop-color:rgb(87.843137%,76.862745%,56.078431%);stop-opacity:1;"/>
<stop offset="1" style="stop-color:rgb(67.45098%,56.470588%,36.862745%);stop-opacity:1;"/>
</linearGradient>
<linearGradient id="linear1" gradientUnits="userSpaceOnUse" x1="8.485281" y1="3.583884" x2="8.485281" y2="5.771495" gradientTransform="matrix(3.126078,0,0,3.124312,-45.15084,0.653034)">
<stop offset="0" style="stop-color:rgb(88.627451%,79.215686%,61.568627%);stop-opacity:1;"/>
<stop offset="1" style="stop-color:rgb(90.588235%,82.352941%,65.490196%);stop-opacity:1;"/>
</linearGradient>
<linearGradient id="linear2" gradientUnits="userSpaceOnUse" x1="12" y1="13.705528" x2="12" y2="12.517932" gradientTransform="matrix(3.126078,0,0,3.124312,-45.15084,0.653034)">
<stop offset="0" style="stop-color:rgb(28.627451%,8.627451%,4.705882%);stop-opacity:1;"/>
<stop offset="1" style="stop-color:rgb(59.607843%,39.607843%,20%);stop-opacity:1;"/>
</linearGradient>
<linearGradient id="linear3" gradientUnits="userSpaceOnUse" x1="7" y1="10.456078" x2="7" y2="8.614136" gradientTransform="matrix(3.126078,0,0,3.124312,-45.15084,0.653034)">
<stop offset="0" style="stop-color:rgb(78.039216%,69.019608%,51.372549%);stop-opacity:1;"/>
<stop offset="1" style="stop-color:rgb(82.745098%,73.333333%,55.686275%);stop-opacity:1;"/>
</linearGradient>
</defs>
<g id="surface1">
<path style=" stroke:none;fill-rule:nonzero;fill:rgb(82.745098%,78.431373%,63.529412%);fill-opacity:1;" d="M -19.636719 4.007812 L 64.539062 4.007812 L 64.539062 -49.515625 L -19.636719 -49.515625 Z M -19.636719 4.007812 "/>
<path style=" stroke:none;fill-rule:nonzero;fill:url(#linear0);" d="M -22.457031 42.027344 L -22.617188 41.730469 C -22.703125 41.566406 -23.097656 41.109375 -23.492188 40.714844 C -24.730469 39.464844 -25.773438 37.851562 -27.675781 34.234375 C -28.539062 32.597656 -28.972656 31.671875 -29.246094 30.886719 C -30.097656 28.4375 -30.496094 25.464844 -30.511719 21.441406 C -30.519531 19.214844 -30.453125 18.566406 -30.046875 16.910156 C -29.140625 13.195312 -26.371094 8.242188 -23.226562 4.703125 C -22.800781 4.230469 -22.316406 3.652344 -22.144531 3.417969 C -21.96875 3.1875 -21.804688 2.96875 -21.773438 2.933594 C -21.746094 2.902344 -20.972656 3.035156 -20.054688 3.234375 C -18.644531 3.539062 -18.125 3.609375 -16.710938 3.703125 C -11.171875 4.074219 -6.59375 4.179688 -2.003906 4.035156 L 20.699219 3.972656 L 47.003906 4.035156 C 51.59375 4.179688 56.171875 4.074219 61.710938 3.703125 C 63.125 3.609375 63.644531 3.535156 65.054688 3.234375 C 65.96875 3.035156 66.746094 2.902344 66.777344 2.933594 C 66.804688 2.96875 66.972656 3.1875 67.144531 3.417969 C 67.316406 3.652344 67.800781 4.230469 68.222656 4.703125 C 71.371094 8.242188 74.140625 13.195312 75.046875 16.910156 C 75.453125 18.566406 75.519531 19.214844 75.511719 21.441406 C 75.496094 25.464844 75.097656 28.4375 74.246094 30.886719 C 73.972656 31.671875 73.539062 32.597656 72.675781 34.234375 C 70.773438 37.851562 69.730469 39.464844 68.492188 40.714844 C 68.097656 41.109375 67.703125 41.566406 67.617188 41.730469 L 67.457031 42.027344 L 65.671875 41.601562 C 62.34375 40.808594 59.011719 40.265625 55.4375 39.929688 C 52.867188 39.691406 51.273438 39.613281 47.914062 39.558594 L 20.726562 39.507812 L -2.910156 39.558594 C -6.273438 39.566406 -7.867188 39.691406 -10.4375 39.929688 C -14.007812 40.265625 -17.34375 40.808594 -20.671875 41.601562 Z M -22.457031 42.027344 "/>
<path style=" stroke:none;fill-rule:nonzero;fill:url(#linear1);" d="M -36.75 19.648438 L -35.148438 10.898438 L -23.269531 11.445312 L 22.0625 11.730469 L 68.269531 11.445312 L 80.148438 10.898438 L 81.75 19.648438 Z M -36.75 19.648438 "/>
<path style=" stroke:none;fill-rule:nonzero;fill:url(#linear2);" d="M -0.28125 43.59375 C -0.445312 43.582031 -1.269531 43.539062 -2.113281 43.496094 C -2.957031 43.453125 -5.675781 43.320312 -8.160156 43.203125 C -13.097656 42.96875 -13.207031 42.953125 -14.285156 42.300781 C -15.113281 41.800781 -16.011719 40.976562 -15.851562 40.863281 C -15.703125 40.761719 -12.941406 40.300781 -11.304688 40.105469 C -8.847656 39.816406 -7.496094 39.742188 -3.691406 39.679688 L 23.152344 39.621094 L 48.695312 39.679688 C 52.496094 39.742188 53.847656 39.816406 56.304688 40.105469 C 57.941406 40.300781 60.703125 40.761719 60.851562 40.863281 C 61.011719 40.976562 60.113281 41.800781 59.289062 42.300781 C 58.207031 42.953125 58.097656 42.96875 53.160156 43.203125 C 50.675781 43.320312 47.957031 43.453125 47.113281 43.496094 C 46.269531 43.539062 45.445312 43.582031 45.28125 43.59375 L 23.152344 43.609375 Z M -0.28125 43.59375 "/>
<path style=" stroke:none;fill-rule:nonzero;fill:url(#linear3);" d="M -35.148438 33.898438 L -36.75 27.566406 L 81.75 27.566406 L 80.148438 33.898438 L 68.269531 33.503906 L 22.097656 33.289062 L -23.269531 33.503906 Z M -35.148438 33.898438 "/>
<path style="fill:none;stroke-width:0.300018;stroke-linecap:butt;stroke-linejoin:miter;stroke:rgb(21.176471%,21.176471%,21.176471%);stroke-opacity:1;stroke-miterlimit:4;" d="M 19.68375 41.4525 C 19.6325 41.67625 19.00875 42.25375 18.2925 42.345 L 14.3825 42.49875 L 0.0174997 42.49875 L -3.8925 42.345 C -4.6075 42.25375 -5.2325 41.67625 -5.28375 41.4525 " transform="matrix(3.125,0,0,3.125,0.00000107208,-89)"/>
<path style="fill:none;stroke-width:0.3;stroke-linecap:butt;stroke-linejoin:miter;stroke:rgb(21.176471%,21.176471%,21.176471%);stroke-opacity:1;stroke-miterlimit:4;" d="M 14.54825 1.139127 C 12.155325 1.224292 12.001628 1.092787 8.554068 0.863592 L 5.296441 0.135929 C 4.37426 1.251846 2.593624 2.837424 2.583627 6.786341 C 2.573631 10.944415 4.296786 12.602634 5.30144 14.010368 C 9.225086 12.362167 12.850085 12.518721 14.530756 12.524984 L 28.75085 12.524984 C 30.43152 12.518721 34.057769 12.362167 37.980165 14.010368 C 38.984819 12.602634 40.707974 10.944415 40.697978 6.786341 C 40.687981 2.837424 38.907346 1.251846 37.986413 0.135929 L 34.727538 0.863592 C 31.279977 1.092787 31.12628 1.224292 28.733356 1.139127 Z M 14.54825 1.139127 " transform="matrix(3.126078,0,0,3.118933,-45.15084,0.728391)"/>
</g>
</svg>
