<?xml version="1.0" encoding="UTF-8"?>
<svg xmlns="http://www.w3.org/2000/svg" xmlns:xlink="http://www.w3.org/1999/xlink" width="40px" height="40px" viewBox="0 0 45 45" version="1.1">
<defs>
<linearGradient id="linear0" gradientUnits="userSpaceOnUse" x1="8.162232" y1="0.814272" x2="8.265284" y2="13.08" gradientTransform="matrix(3.126067,0,0,-3.124312,-45.150839,44.347094)">
<stop offset="0" style="stop-color:rgb(79.607843%,67.058824%,44.705882%);stop-opacity:1;"/>
<stop offset="0.46009" style="stop-color:rgb(87.843137%,76.862745%,56.078431%);stop-opacity:1;"/>
<stop offset="1" style="stop-color:rgb(67.45098%,56.470588%,36.862745%);stop-opacity:1;"/>
</linearGradient>
<linearGradient id="linear1" gradientUnits="userSpaceOnUse" x1="8.485281" y1="3.583884" x2="8.485281" y2="5.771495" gradientTransform="matrix(3.126067,0,0,-3.124312,-45.150839,44.347094)">
<stop offset="0" style="stop-color:rgb(88.627451%,79.215686%,61.568627%);stop-opacity:1;"/>
<stop offset="1" style="stop-color:rgb(90.588235%,82.352941%,65.490196%);stop-opacity:1;"/>
</linearGradient>
<linearGradient id="linear2" gradientUnits="userSpaceOnUse" x1="12" y1="13.705528" x2="12" y2="12.517932" gradientTransform="matrix(3.126067,0,0,-3.124312,-45.150839,44.347094)">
<stop offset="0" style="stop-color:rgb(28.627451%,8.627451%,4.705882%);stop-opacity:1;"/>
<stop offset="1" style="stop-color:rgb(59.607843%,39.607843%,20%);stop-opacity:1;"/>
</linearGradient>
<linearGradient id="linear3" gradientUnits="userSpaceOnUse" x1="7" y1="10.456078" x2="7" y2="8.614136" gradientTransform="matrix(3.126067,0,0,-3.124312,-45.150839,44.347094)">
<stop offset="0" style="stop-color:rgb(78.039216%,69.019608%,51.372549%);stop-opacity:1;"/>
<stop offset="1" style="stop-color:rgb(82.745098%,73.333333%,55.686275%);stop-opacity:1;"/>
</linearGradient>
</defs>
<g id="surface1">
<path style=" stroke:none;fill-rule:nonzero;fill:rgb(82.745098%,78.431373%,63.529412%);fill-opacity:1;" d="M -19.636719 94.007812 L 64.535156 94.007812 L 64.535156 40.484375 L -19.636719 40.484375 Z M -19.636719 94.007812 "/>
<path style=" stroke:none;fill-rule:nonzero;fill:url(#linear0);" d="M -22.457031 2.972656 L -22.617188 3.269531 C -22.703125 3.433594 -23.097656 3.890625 -23.492188 4.285156 C -24.730469 5.535156 -25.773438 7.148438 -27.679688 10.765625 C -28.539062 12.402344 -28.972656 13.328125 -29.246094 14.113281 C -30.097656 16.5625 -30.496094 19.535156 -30.511719 23.558594 C -30.519531 25.785156 -30.453125 26.433594 -30.046875 28.089844 C -29.140625 31.804688 -26.371094 36.757812 -23.226562 40.296875 C -22.804688 40.769531 -22.316406 41.347656 -22.144531 41.582031 C -21.96875 41.8125 -21.804688 42.03125 -21.777344 42.066406 C -21.746094 42.097656 -20.972656 41.964844 -20.054688 41.765625 C -18.644531 41.464844 -18.125 41.390625 -16.710938 41.296875 C -11.171875 40.925781 -6.59375 40.820312 -2.003906 40.964844 L 20.699219 41.027344 L 47.003906 40.964844 C 51.59375 40.820312 56.171875 40.925781 61.710938 41.296875 C 63.125 41.390625 63.644531 41.464844 65.050781 41.765625 C 65.96875 41.964844 66.746094 42.097656 66.777344 42.066406 C 66.804688 42.03125 66.96875 41.8125 67.144531 41.582031 C 67.316406 41.347656 67.800781 40.769531 68.222656 40.296875 C 71.371094 36.757812 74.140625 31.804688 75.046875 28.089844 C 75.453125 26.433594 75.519531 25.785156 75.511719 23.558594 C 75.496094 19.535156 75.097656 16.5625 74.246094 14.113281 C 73.972656 13.328125 73.539062 12.402344 72.675781 10.765625 C 70.773438 7.148438 69.730469 5.535156 68.492188 4.285156 C 68.097656 3.890625 67.703125 3.433594 67.617188 3.269531 L 67.457031 2.972656 L 65.671875 3.398438 C 62.34375 4.191406 59.011719 4.734375 55.4375 5.070312 C 52.867188 5.308594 51.273438 5.386719 47.910156 5.441406 L 20.726562 5.492188 L -2.910156 5.441406 C -6.273438 5.433594 -7.867188 5.308594 -10.4375 5.070312 C -14.007812 4.734375 -17.34375 4.191406 -20.671875 3.398438 Z M -22.457031 2.972656 "/>
<path style=" stroke:none;fill-rule:nonzero;fill:url(#linear1);" d="M -36.75 25.351562 L -35.148438 34.101562 L -23.269531 33.554688 L 22.0625 33.269531 L 68.269531 33.554688 L 80.148438 34.101562 L 81.75 25.351562 Z M -36.75 25.351562 "/>
<path style=" stroke:none;fill-rule:nonzero;fill:url(#linear2);" d="M -0.28125 1.40625 C -0.445312 1.417969 -1.269531 1.460938 -2.113281 1.503906 C -2.957031 1.546875 -5.675781 1.679688 -8.160156 1.796875 C -13.097656 2.03125 -13.207031 2.046875 -14.285156 2.699219 C -15.113281 3.199219 -16.011719 4.023438 -15.851562 4.136719 C -15.703125 4.238281 -12.941406 4.699219 -11.304688 4.894531 C -8.847656 5.183594 -7.496094 5.257812 -3.691406 5.320312 L 23.152344 5.378906 L 48.695312 5.320312 C 52.496094 5.261719 53.847656 5.183594 56.304688 4.894531 C 57.941406 4.699219 60.703125 4.238281 60.851562 4.136719 C 61.011719 4.023438 60.113281 3.199219 59.285156 2.699219 C 58.207031 2.046875 58.097656 2.03125 53.160156 1.796875 C 50.675781 1.679688 47.957031 1.546875 47.113281 1.503906 C 46.269531 1.460938 45.445312 1.417969 45.28125 1.40625 L 23.152344 1.390625 Z M -0.28125 1.40625 "/>
<path style=" stroke:none;fill-rule:nonzero;fill:url(#linear3);" d="M -35.148438 11.101562 L -36.75 17.433594 L 81.75 17.433594 L 80.148438 11.101562 L 68.269531 11.496094 L 22.097656 11.710938 L -23.269531 11.496094 Z M -35.148438 11.101562 "/>
<path style="fill:none;stroke-width:0.300018;stroke-linecap:butt;stroke-linejoin:miter;stroke:rgb(21.176471%,21.176471%,21.176471%);stroke-opacity:1;stroke-miterlimit:4;" d="M 19.683866 1.1075 C 19.632616 0.88375 19.008864 0.30625 18.292611 0.215 L 14.382598 0.0612499 L 0.0175488 0.0612499 L -3.892465 0.215 C -4.608717 0.30625 -5.232469 0.88375 -5.283719 1.1075 " transform="matrix(3.124989,0,0,3.125,-0.000152378,1)"/>
<path style="fill:none;stroke-width:0.3;stroke-linecap:butt;stroke-linejoin:miter;stroke:rgb(21.176471%,21.176471%,21.176471%);stroke-opacity:1;stroke-miterlimit:4;" d="M 14.548299 1.139167 C 12.155366 1.224332 12.001669 1.092827 8.554097 0.863632 L 5.296459 0.135969 C 4.374274 1.251886 2.593633 2.837464 2.583636 6.786382 C 2.573639 10.944455 4.296801 12.602674 5.301458 14.009155 C 9.223868 12.362208 12.850129 12.518762 14.530805 12.525024 L 28.750947 12.525024 C 30.431623 12.518762 34.057885 12.362208 37.980295 14.009155 C 38.984952 12.602674 40.708113 10.944455 40.698116 6.786382 C 40.68812 2.837464 38.907478 1.251886 37.985293 0.135969 L 34.727656 0.863632 C 31.280084 1.092827 31.126386 1.224332 28.733453 1.139167 Z M 14.548299 1.139167 " transform="matrix(3.126067,0,0,-3.118933,-45.150839,44.271735)"/>
</g>
</svg>
