<?xml version="1.0" encoding="UTF-8"?>
<svg xmlns="http://www.w3.org/2000/svg" xmlns:xlink="http://www.w3.org/1999/xlink" width="40px" height="40px" viewBox="0 0 45 45" version="1.1">
<defs>
<linearGradient id="linear0" gradientUnits="userSpaceOnUse" x1="-5.44" y1="12.16" x2="-5.44" y2="30.08" gradientTransform="matrix(3.749986,0,0,3.125,48.546799,0.999999)">
<stop offset="0" style="stop-color:rgb(27.058824%,0.392157%,0%);stop-opacity:1;"/>
<stop offset="0.467635" style="stop-color:rgb(76.470588%,0%,0%);stop-opacity:1;"/>
<stop offset="1" style="stop-color:rgb(27.058824%,0.392157%,0%);stop-opacity:1;"/>
</linearGradient>
<linearGradient id="linear1" gradientUnits="userSpaceOnUse" x1="8.162232" y1="0.814272" x2="8.265284" y2="13.08" gradientTransform="matrix(3.126067,0,0,-3.124312,-0.15084,44.347093)">
<stop offset="0" style="stop-color:rgb(79.607843%,67.058824%,44.705882%);stop-opacity:1;"/>
<stop offset="0.46009" style="stop-color:rgb(87.843137%,76.862745%,56.078431%);stop-opacity:1;"/>
<stop offset="1" style="stop-color:rgb(67.45098%,56.470588%,36.862745%);stop-opacity:1;"/>
</linearGradient>
<linearGradient id="linear2" gradientUnits="userSpaceOnUse" x1="8.162232" y1="0.814272" x2="8.265284" y2="13.08" gradientTransform="matrix(3.126067,0,0,-3.124312,-0.15084,44.347093)">
<stop offset="0" style="stop-color:rgb(79.607843%,67.058824%,44.705882%);stop-opacity:1;"/>
<stop offset="0.46009" style="stop-color:rgb(87.843137%,76.862745%,56.078431%);stop-opacity:1;"/>
<stop offset="1" style="stop-color:rgb(67.45098%,56.470588%,36.862745%);stop-opacity:1;"/>
</linearGradient>
<linearGradient id="linear3" gradientUnits="userSpaceOnUse" x1="8.485281" y1="3.583884" x2="8.485281" y2="5.771495" gradientTransform="matrix(3.126067,0,0,-3.124312,-0.15084,44.347093)">
<stop offset="0" style="stop-color:rgb(88.627451%,79.215686%,61.568627%);stop-opacity:1;"/>
<stop offset="1" style="stop-color:rgb(90.588235%,82.352941%,65.490196%);stop-opacity:1;"/>
</linearGradient>
<linearGradient id="linear4" gradientUnits="userSpaceOnUse" x1="12" y1="13.705528" x2="12" y2="12.517932" gradientTransform="matrix(3.126067,0,0,-3.124312,-0.15084,44.347093)">
<stop offset="0" style="stop-color:rgb(28.627451%,8.627451%,4.705882%);stop-opacity:1;"/>
<stop offset="1" style="stop-color:rgb(59.607843%,39.607843%,20%);stop-opacity:1;"/>
</linearGradient>
<linearGradient id="linear5" gradientUnits="userSpaceOnUse" x1="1.711872" y1="4.637956" x2="1.685124" y2="10.08" gradientTransform="matrix(3.126067,0,0,-3.124312,-0.15084,44.347093)">
<stop offset="0" style="stop-color:rgb(28.627451%,8.627451%,4.705882%);stop-opacity:1;"/>
<stop offset="0.466992" style="stop-color:rgb(60%,40%,20%);stop-opacity:1;"/>
<stop offset="1" style="stop-color:rgb(28.627451%,8.627451%,4.705882%);stop-opacity:1;"/>
</linearGradient>
<linearGradient id="linear6" gradientUnits="userSpaceOnUse" x1="7" y1="10.456078" x2="7" y2="8.614136" gradientTransform="matrix(3.126067,0,0,-3.124312,-0.15084,44.347093)">
<stop offset="0" style="stop-color:rgb(78.039216%,69.019608%,51.372549%);stop-opacity:1;"/>
<stop offset="1" style="stop-color:rgb(82.745098%,73.333333%,55.686275%);stop-opacity:1;"/>
</linearGradient>
<linearGradient id="linear7" gradientUnits="userSpaceOnUse" x1="6.680893" y1="0.552842" x2="6.373914" y2="13.418021" gradientTransform="matrix(3.126067,0,0,-3.124312,-0.15084,44.347093)">
<stop offset="0" style="stop-color:rgb(27.058824%,0.392157%,0%);stop-opacity:1;"/>
<stop offset="0.467635" style="stop-color:rgb(76.470588%,0%,0%);stop-opacity:1;"/>
<stop offset="1" style="stop-color:rgb(27.058824%,0.392157%,0%);stop-opacity:1;"/>
</linearGradient>
</defs>
<g id="surface1">
<path style=" stroke:none;fill-rule:nonzero;fill:rgb(82.745098%,78.431373%,63.529412%);fill-opacity:1;" d="M 25.363281 94.007812 L 109.535156 94.007812 L 109.535156 40.484375 L 25.363281 40.484375 Z M 25.363281 94.007812 "/>
<path style=" stroke:none;fill-rule:nonzero;fill:url(#linear0);" d="M 27.320312 39 L 29.679688 39 C 29.855469 39 30 39.144531 30 39.320312 L 30 94.679688 C 30 94.855469 29.855469 95 29.679688 95 L 27.320312 95 C 27.144531 95 27 94.855469 27 94.679688 L 27 39.320312 C 27 39.144531 27.144531 39 27.320312 39 Z M 27.320312 39 "/>
<path style=" stroke:none;fill-rule:nonzero;fill:url(#linear1);" d="M 22.542969 2.972656 L 22.382812 3.269531 C 22.296875 3.433594 21.902344 3.890625 21.507812 4.285156 C 20.269531 5.535156 19.226562 7.148438 17.320312 10.765625 C 16.460938 12.402344 16.027344 13.328125 15.753906 14.113281 C 14.902344 16.5625 14.503906 19.535156 14.488281 23.558594 C 14.480469 25.785156 14.546875 26.433594 14.953125 28.089844 C 15.859375 31.804688 18.628906 36.757812 21.773438 40.296875 C 22.195312 40.769531 22.683594 41.347656 22.855469 41.582031 C 23.03125 41.8125 23.195312 42.03125 23.222656 42.066406 C 23.253906 42.097656 24.027344 41.964844 24.945312 41.765625 C 26.355469 41.464844 26.875 41.390625 28.289062 41.296875 C 33.828125 40.925781 38.40625 40.820312 42.996094 40.964844 L 65.699219 41.027344 L 92.003906 40.964844 C 96.59375 40.820312 101.171875 40.925781 106.710938 41.296875 C 108.125 41.390625 108.644531 41.464844 110.050781 41.765625 C 110.96875 41.964844 111.746094 42.097656 111.777344 42.066406 C 111.804688 42.03125 111.96875 41.8125 112.144531 41.582031 C 112.316406 41.347656 112.800781 40.769531 113.222656 40.296875 C 116.371094 36.757812 119.140625 31.804688 120.046875 28.089844 C 120.453125 26.433594 120.519531 25.785156 120.511719 23.558594 C 120.496094 19.535156 120.097656 16.5625 119.246094 14.113281 C 118.972656 13.328125 118.539062 12.402344 117.675781 10.765625 C 115.773438 7.148438 114.730469 5.535156 113.492188 4.285156 C 113.097656 3.890625 112.703125 3.433594 112.617188 3.269531 L 112.457031 2.972656 L 110.671875 3.398438 C 107.34375 4.191406 104.011719 4.734375 100.4375 5.070312 C 97.867188 5.308594 96.273438 5.386719 92.910156 5.441406 L 65.726562 5.492188 L 42.089844 5.441406 C 38.726562 5.433594 37.132812 5.308594 34.5625 5.070312 C 30.992188 4.734375 27.65625 4.191406 24.328125 3.398438 Z M 22.542969 2.972656 "/>
<path style=" stroke:none;fill-rule:nonzero;fill:url(#linear2);" d="M 14.316406 3.535156 C 12.246094 6.449219 12.421875 6.714844 11.410156 8.585938 C 9.285156 12.519531 8.289062 16.550781 8.148438 21.832031 C 7.945312 29.425781 9.5625 35.546875 13.972656 40.625 C 14.695312 41.457031 16.589844 43.671875 16.632812 43.671875 C 16.683594 43.671875 19.726562 42.726562 19.738281 42.710938 C 19.75 42.703125 19.582031 42.503906 19.371094 42.269531 C 16.660156 39.273438 13.777344 34.550781 12.511719 31.042969 C 11.417969 28.007812 11.558594 25.871094 11.707031 22.210938 C 11.910156 17.296875 12.066406 13.960938 13.359375 11.222656 C 13.851562 10.1875 15.699219 6.796875 16.359375 5.714844 C 17.359375 4.082031 18.316406 2.765625 19.015625 2.0625 L 19.34375 1.734375 L 18.167969 1.308594 L 16.421875 0.578125 Z M 14.316406 3.535156 "/>
<path style=" stroke:none;fill-rule:nonzero;fill:url(#linear3);" d="M 8.25 25.351562 L 9.851562 34.101562 L 21.730469 33.554688 L 67.0625 33.269531 L 113.269531 33.554688 L 125.148438 34.101562 L 126.75 25.351562 Z M 8.25 25.351562 "/>
<path style=" stroke:none;fill-rule:nonzero;fill:url(#linear4);" d="M 44.71875 1.40625 C 44.554688 1.417969 43.730469 1.460938 42.886719 1.503906 C 42.042969 1.546875 39.324219 1.679688 36.839844 1.796875 C 31.902344 2.03125 31.792969 2.046875 30.714844 2.699219 C 29.886719 3.199219 28.988281 4.023438 29.148438 4.136719 C 29.296875 4.238281 32.058594 4.699219 33.695312 4.894531 C 36.152344 5.183594 37.503906 5.257812 41.308594 5.320312 L 68.152344 5.378906 L 93.695312 5.320312 C 97.496094 5.261719 98.847656 5.183594 101.304688 4.894531 C 102.941406 4.699219 105.703125 4.238281 105.851562 4.136719 C 106.011719 4.023438 105.113281 3.199219 104.285156 2.699219 C 103.207031 2.046875 103.097656 2.03125 98.160156 1.796875 C 95.675781 1.679688 92.957031 1.546875 92.113281 1.503906 C 91.269531 1.460938 90.445312 1.417969 90.28125 1.40625 L 68.152344 1.390625 Z M 44.71875 1.40625 "/>
<path style="fill:none;stroke-width:0.436676;stroke-linecap:butt;stroke-linejoin:miter;stroke:rgb(21.176471%,21.176471%,21.176471%);stroke-opacity:1;stroke-miterlimit:4;" d="M -6.283722 13.0575 L -6.283722 29.60375 " transform="matrix(3.124989,0,0,3.125,44.999847,0.999999)"/>
<path style=" stroke:none;fill-rule:nonzero;fill:url(#linear5);" d="M 8.710938 12.996094 C 8.640625 13.007812 8.292969 13.0625 7.933594 13.117188 C 4 13.703125 1.507812 16.164062 0.773438 20.195312 C 0.488281 21.75 0.46875 22.410156 0.675781 23.421875 C 1.117188 25.558594 1.957031 27.191406 3.15625 28.242188 C 3.828125 28.832031 4.328125 29.140625 5.304688 29.570312 C 6.050781 29.898438 8.371094 30.660156 8.4375 30.597656 C 8.453125 30.585938 8.367188 30.039062 8.246094 29.386719 C 7.816406 27.082031 7.726562 25.9375 7.730469 22.957031 C 7.730469 19.980469 7.832031 18.699219 8.242188 16.4375 C 8.425781 15.429688 8.851562 13.605469 9.023438 13.09375 C 9.066406 12.957031 9.015625 12.941406 8.710938 12.996094 Z M 8.710938 12.996094 "/>
<path style=" stroke:none;fill-rule:nonzero;fill:url(#linear6);" d="M 9.851562 11.101562 L 8.25 17.433594 L 126.75 17.433594 L 125.148438 11.101562 L 113.269531 11.496094 L 67.097656 11.710938 L 21.730469 11.496094 Z M 9.851562 11.101562 "/>
<path style="fill:none;stroke-width:0.300018;stroke-linecap:butt;stroke-linejoin:miter;stroke:rgb(21.176471%,21.176471%,21.176471%);stroke-opacity:1;stroke-miterlimit:4;" d="M 19.683866 1.1075 C 19.632616 0.88375 19.008864 0.30625 18.292611 0.215 L 14.382598 0.0612502 L 0.0175491 0.0612502 L -3.892464 0.215 C -4.608717 0.30625 -5.232469 0.88375 -5.283719 1.1075 " transform="matrix(3.124989,0,0,3.125,44.999847,0.999999)"/>
<path style=" stroke:none;fill-rule:nonzero;fill:url(#linear7);" d="M 13.828125 9.597656 C 12.855469 11.417969 12.222656 13.355469 11.808594 15.339844 C 10.671875 20.792969 10.824219 22.757812 11.121094 26.042969 C 11.386719 28.996094 12.820312 32.691406 13.316406 33.898438 C 14.796875 37.492188 16.589844 39.957031 19.53125 43.164062 L 20.097656 43.453125 L 21.894531 42.550781 C 22.765625 42.113281 23.636719 42.171875 23.648438 42.164062 C 23.671875 42.144531 22.90625 41.246094 22.199219 40.464844 C 18.921875 36.847656 16.4375 32.179688 15.480469 28.476562 C 14.914062 24.722656 14.054688 20.308594 15.941406 14.371094 C 16.476562 12.839844 18.855469 8.46875 20.265625 6.433594 C 20.847656 5.597656 21.304688 5.042969 22.0625 4.265625 C 22.449219 3.871094 22.8125 3.46875 22.871094 3.375 L 22.976562 3.203125 L 22.589844 3.101562 C 22.375 3.042969 21.578125 2.800781 20.8125 2.558594 C 20.046875 2.316406 19.34375 1.734375 19.34375 1.734375 C 17.628906 3.480469 16.671875 4.359375 13.828125 9.597656 Z M 13.828125 9.597656 "/>
<path style="fill:none;stroke-width:0.3;stroke-linecap:butt;stroke-linejoin:miter;stroke:rgb(21.176471%,21.176471%,21.176471%);stroke-opacity:1;stroke-miterlimit:4;" d="M 2.967255 4.198857 C 1.785159 4.614665 0.501847 4.691063 0.198201 7.004304 C 0.279423 9.124671 1.337812 10.06149 2.979751 10.132879 " transform="matrix(3.126067,0,0,-3.118933,-0.15084,44.271734)"/>
<path style="fill:none;stroke-width:0.3;stroke-linecap:butt;stroke-linejoin:miter;stroke:rgb(21.176471%,21.176471%,21.176471%);stroke-opacity:1;stroke-miterlimit:4;" d="M 14.548299 1.139167 C 12.155367 1.224332 12.001669 1.092827 8.554097 0.863632 L 5.29646 0.135969 C 4.374275 1.251885 2.593633 2.837464 2.583636 6.786381 C 2.57364 10.944455 4.296801 12.602674 5.301458 14.009155 C 9.223868 12.362207 12.850129 12.518761 14.530805 12.525023 L 28.750948 12.525023 C 30.431624 12.518761 34.057885 12.362207 37.980295 14.009155 C 38.984952 12.602674 40.708113 10.944455 40.698117 6.786381 C 40.68812 2.837464 38.907478 1.251885 37.985293 0.135969 L 34.727656 0.863632 C 31.280084 1.092827 31.126386 1.224332 28.733454 1.139167 Z M 14.548299 1.139167 " transform="matrix(3.126067,0,0,-3.118933,-0.15084,44.271734)"/>
</g>
</svg>
