<?xml version="1.0" encoding="UTF-8"?>
<svg xmlns="http://www.w3.org/2000/svg" xmlns:xlink="http://www.w3.org/1999/xlink" width="40px" height="40px" viewBox="0 0 45 45" version="1.1">
<defs>
<linearGradient id="linear0" gradientUnits="userSpaceOnUse" x1="-5.44" y1="12.16" x2="-5.44" y2="30.08" gradientTransform="matrix(3.749999,0,0,3.125,48.546964,-89)">
<stop offset="0" style="stop-color:rgb(27.058824%,0.392157%,0%);stop-opacity:1;"/>
<stop offset="0.467635" style="stop-color:rgb(76.470588%,0%,0%);stop-opacity:1;"/>
<stop offset="1" style="stop-color:rgb(27.058824%,0.392157%,0%);stop-opacity:1;"/>
</linearGradient>
<linearGradient id="linear1" gradientUnits="userSpaceOnUse" x1="8.162232" y1="0.814272" x2="8.265284" y2="13.08" gradientTransform="matrix(3.126078,0,0,3.124312,-0.150841,0.653034)">
<stop offset="0" style="stop-color:rgb(79.607843%,67.058824%,44.705882%);stop-opacity:1;"/>
<stop offset="0.46009" style="stop-color:rgb(87.843137%,76.862745%,56.078431%);stop-opacity:1;"/>
<stop offset="1" style="stop-color:rgb(67.45098%,56.470588%,36.862745%);stop-opacity:1;"/>
</linearGradient>
<linearGradient id="linear2" gradientUnits="userSpaceOnUse" x1="8.162232" y1="0.814272" x2="8.265284" y2="13.08" gradientTransform="matrix(3.126078,0,0,3.124312,-0.150841,0.653034)">
<stop offset="0" style="stop-color:rgb(79.607843%,67.058824%,44.705882%);stop-opacity:1;"/>
<stop offset="0.46009" style="stop-color:rgb(87.843137%,76.862745%,56.078431%);stop-opacity:1;"/>
<stop offset="1" style="stop-color:rgb(67.45098%,56.470588%,36.862745%);stop-opacity:1;"/>
</linearGradient>
<linearGradient id="linear3" gradientUnits="userSpaceOnUse" x1="8.485281" y1="3.583884" x2="8.485281" y2="5.771495" gradientTransform="matrix(3.126078,0,0,3.124312,-0.150841,0.653034)">
<stop offset="0" style="stop-color:rgb(88.627451%,79.215686%,61.568627%);stop-opacity:1;"/>
<stop offset="1" style="stop-color:rgb(90.588235%,82.352941%,65.490196%);stop-opacity:1;"/>
</linearGradient>
<linearGradient id="linear4" gradientUnits="userSpaceOnUse" x1="12" y1="13.705528" x2="12" y2="12.517932" gradientTransform="matrix(3.126078,0,0,3.124312,-0.150841,0.653034)">
<stop offset="0" style="stop-color:rgb(28.627451%,8.627451%,4.705882%);stop-opacity:1;"/>
<stop offset="1" style="stop-color:rgb(59.607843%,39.607843%,20%);stop-opacity:1;"/>
</linearGradient>
<linearGradient id="linear5" gradientUnits="userSpaceOnUse" x1="1.711872" y1="4.637956" x2="1.685124" y2="10.08" gradientTransform="matrix(3.126078,0,0,3.124312,-0.150841,0.653034)">
<stop offset="0" style="stop-color:rgb(28.627451%,8.627451%,4.705882%);stop-opacity:1;"/>
<stop offset="0.466992" style="stop-color:rgb(60%,40%,20%);stop-opacity:1;"/>
<stop offset="1" style="stop-color:rgb(28.627451%,8.627451%,4.705882%);stop-opacity:1;"/>
</linearGradient>
<linearGradient id="linear6" gradientUnits="userSpaceOnUse" x1="7" y1="10.456078" x2="7" y2="8.614136" gradientTransform="matrix(3.126078,0,0,3.124312,-0.150841,0.653034)">
<stop offset="0" style="stop-color:rgb(78.039216%,69.019608%,51.372549%);stop-opacity:1;"/>
<stop offset="1" style="stop-color:rgb(82.745098%,73.333333%,55.686275%);stop-opacity:1;"/>
</linearGradient>
<linearGradient id="linear7" gradientUnits="userSpaceOnUse" x1="6.680893" y1="0.552842" x2="6.373914" y2="13.418021" gradientTransform="matrix(3.126078,0,0,3.124312,-0.150841,0.653034)">
<stop offset="0" style="stop-color:rgb(27.058824%,0.392157%,0%);stop-opacity:1;"/>
<stop offset="0.467635" style="stop-color:rgb(76.470588%,0%,0%);stop-opacity:1;"/>
<stop offset="1" style="stop-color:rgb(27.058824%,0.392157%,0%);stop-opacity:1;"/>
</linearGradient>
</defs>
<g id="surface1">
<path style=" stroke:none;fill-rule:nonzero;fill:rgb(82.745098%,78.431373%,63.529412%);fill-opacity:1;" d="M 25.363281 4.007812 L 109.539062 4.007812 L 109.539062 -49.515625 L 25.363281 -49.515625 Z M 25.363281 4.007812 "/>
<path style=" stroke:none;fill-rule:nonzero;fill:url(#linear0);" d="M 27.320312 -51 L 29.679688 -51 C 29.855469 -51 30 -50.855469 30 -50.679688 L 30 4.679688 C 30 4.855469 29.855469 5 29.679688 5 L 27.320312 5 C 27.144531 5 27 4.855469 27 4.679688 L 27 -50.679688 C 27 -50.855469 27.144531 -51 27.320312 -51 Z M 27.320312 -51 "/>
<path style="fill:none;stroke-width:0.436676;stroke-linecap:butt;stroke-linejoin:miter;stroke:rgb(21.176471%,21.176471%,21.176471%);stroke-opacity:1;stroke-miterlimit:4;" d="M -6.28375 13.0575 L -6.28375 29.60375 " transform="matrix(3.125,0,0,3.125,45,-89)"/>
<path style=" stroke:none;fill-rule:nonzero;fill:url(#linear1);" d="M 22.542969 42.027344 L 22.382812 41.730469 C 22.296875 41.566406 21.902344 41.109375 21.507812 40.714844 C 20.269531 39.464844 19.226562 37.851562 17.324219 34.234375 C 16.460938 32.597656 16.027344 31.671875 15.753906 30.886719 C 14.902344 28.4375 14.503906 25.464844 14.488281 21.441406 C 14.480469 19.214844 14.546875 18.566406 14.953125 16.910156 C 15.859375 13.195312 18.628906 8.242188 21.773438 4.703125 C 22.199219 4.230469 22.683594 3.652344 22.855469 3.417969 C 23.03125 3.1875 23.195312 2.96875 23.226562 2.933594 C 23.253906 2.902344 24.027344 3.035156 24.945312 3.234375 C 26.355469 3.539062 26.875 3.609375 28.289062 3.703125 C 33.828125 4.074219 38.40625 4.179688 42.996094 4.035156 L 65.699219 3.972656 L 92.003906 4.035156 C 96.59375 4.179688 101.171875 4.074219 106.710938 3.703125 C 108.125 3.609375 108.644531 3.535156 110.054688 3.234375 C 110.96875 3.035156 111.746094 2.902344 111.777344 2.933594 C 111.804688 2.96875 111.972656 3.1875 112.144531 3.417969 C 112.316406 3.652344 112.800781 4.230469 113.222656 4.703125 C 116.371094 8.242188 119.140625 13.195312 120.046875 16.910156 C 120.453125 18.566406 120.519531 19.214844 120.511719 21.441406 C 120.496094 25.464844 120.097656 28.4375 119.246094 30.886719 C 118.972656 31.671875 118.539062 32.597656 117.675781 34.234375 C 115.773438 37.851562 114.730469 39.464844 113.492188 40.714844 C 113.097656 41.109375 112.703125 41.566406 112.617188 41.730469 L 112.457031 42.027344 L 110.671875 41.601562 C 107.34375 40.808594 104.011719 40.265625 100.4375 39.929688 C 97.867188 39.691406 96.273438 39.613281 92.914062 39.558594 L 65.726562 39.507812 L 42.089844 39.558594 C 38.726562 39.566406 37.132812 39.691406 34.5625 39.929688 C 30.992188 40.265625 27.65625 40.808594 24.328125 41.601562 Z M 22.542969 42.027344 "/>
<path style=" stroke:none;fill-rule:nonzero;fill:url(#linear2);" d="M 14.316406 41.464844 C 12.246094 38.550781 12.421875 38.285156 11.410156 36.414062 C 9.285156 32.480469 8.289062 28.449219 8.148438 23.167969 C 7.945312 15.574219 9.5625 9.453125 13.972656 4.375 C 14.699219 3.542969 16.589844 1.328125 16.632812 1.328125 C 16.683594 1.328125 19.726562 2.273438 19.738281 2.289062 C 19.75 2.296875 19.582031 2.496094 19.371094 2.730469 C 16.660156 5.726562 13.777344 10.449219 12.511719 13.957031 C 11.417969 16.992188 11.558594 19.128906 11.707031 22.789062 C 11.910156 27.703125 12.066406 31.039062 13.363281 33.777344 C 13.851562 34.8125 15.699219 38.207031 16.359375 39.285156 C 17.359375 40.917969 18.316406 42.234375 19.015625 42.9375 L 19.34375 43.265625 L 18.167969 43.691406 L 16.421875 44.425781 Z M 14.316406 41.464844 "/>
<path style=" stroke:none;fill-rule:nonzero;fill:url(#linear3);" d="M 8.25 19.648438 L 9.851562 10.898438 L 21.730469 11.445312 L 67.0625 11.730469 L 113.269531 11.445312 L 125.148438 10.898438 L 126.75 19.648438 Z M 8.25 19.648438 "/>
<path style=" stroke:none;fill-rule:nonzero;fill:url(#linear4);" d="M 44.71875 43.59375 C 44.554688 43.582031 43.730469 43.539062 42.886719 43.496094 C 42.042969 43.453125 39.324219 43.320312 36.839844 43.203125 C 31.902344 42.96875 31.792969 42.953125 30.714844 42.300781 C 29.886719 41.800781 28.988281 40.976562 29.148438 40.863281 C 29.296875 40.761719 32.058594 40.300781 33.695312 40.105469 C 36.152344 39.816406 37.503906 39.742188 41.308594 39.679688 L 68.152344 39.621094 L 93.695312 39.679688 C 97.496094 39.742188 98.847656 39.816406 101.304688 40.105469 C 102.941406 40.300781 105.703125 40.761719 105.851562 40.863281 C 106.011719 40.976562 105.113281 41.800781 104.289062 42.300781 C 103.207031 42.953125 103.097656 42.96875 98.160156 43.203125 C 95.675781 43.320312 92.957031 43.453125 92.113281 43.496094 C 91.269531 43.539062 90.445312 43.582031 90.28125 43.59375 L 68.152344 43.609375 Z M 44.71875 43.59375 "/>
<path style=" stroke:none;fill-rule:nonzero;fill:url(#linear5);" d="M 8.710938 32.003906 C 8.640625 31.992188 8.292969 31.9375 7.933594 31.882812 C 4 31.296875 1.507812 28.835938 0.773438 24.804688 C 0.488281 23.25 0.46875 22.589844 0.675781 21.578125 C 1.117188 19.441406 1.957031 17.808594 3.15625 16.757812 C 3.828125 16.167969 4.328125 15.859375 5.304688 15.429688 C 6.050781 15.101562 8.371094 14.339844 8.4375 14.402344 C 8.453125 14.414062 8.367188 14.960938 8.246094 15.613281 C 7.816406 17.917969 7.726562 19.0625 7.730469 22.042969 C 7.730469 25.019531 7.832031 26.300781 8.242188 28.5625 C 8.425781 29.570312 8.851562 31.394531 9.023438 31.90625 C 9.066406 32.042969 9.015625 32.058594 8.710938 32.003906 Z M 8.710938 32.003906 "/>
<path style=" stroke:none;fill-rule:nonzero;fill:url(#linear6);" d="M 9.851562 33.898438 L 8.25 27.566406 L 126.75 27.566406 L 125.148438 33.898438 L 113.269531 33.503906 L 67.097656 33.289062 L 21.730469 33.503906 Z M 9.851562 33.898438 "/>
<path style="fill:none;stroke-width:0.300018;stroke-linecap:butt;stroke-linejoin:miter;stroke:rgb(21.176471%,21.176471%,21.176471%);stroke-opacity:1;stroke-miterlimit:4;" d="M 19.68375 41.4525 C 19.6325 41.67625 19.00875 42.25375 18.2925 42.345 L 14.3825 42.49875 L 0.0175 42.49875 L -3.8925 42.345 C -4.6075 42.25375 -5.2325 41.67625 -5.28375 41.4525 " transform="matrix(3.125,0,0,3.125,45,-89)"/>
<path style=" stroke:none;fill-rule:nonzero;fill:url(#linear7);" d="M 13.828125 35.402344 C 12.855469 33.582031 12.222656 31.644531 11.808594 29.660156 C 10.671875 24.207031 10.824219 22.242188 11.121094 18.957031 C 11.386719 16.003906 12.820312 12.308594 13.316406 11.101562 C 14.796875 7.507812 16.589844 5.042969 19.53125 1.835938 L 20.097656 1.546875 L 21.894531 2.449219 C 22.765625 2.886719 23.636719 2.828125 23.648438 2.835938 C 23.671875 2.855469 22.90625 3.753906 22.199219 4.535156 C 18.921875 8.152344 16.4375 12.820312 15.480469 16.523438 C 14.914062 20.277344 14.054688 24.691406 15.941406 30.628906 C 16.476562 32.160156 18.855469 36.53125 20.265625 38.566406 C 20.847656 39.40625 21.304688 39.957031 22.0625 40.734375 C 22.449219 41.132812 22.8125 41.53125 22.871094 41.625 L 22.976562 41.796875 L 22.589844 41.898438 C 22.375 41.957031 21.578125 42.199219 20.8125 42.441406 C 20.046875 42.683594 19.34375 43.265625 19.34375 43.265625 C 17.628906 41.519531 16.671875 40.640625 13.828125 35.402344 Z M 13.828125 35.402344 "/>
<path style="fill:none;stroke-width:0.3;stroke-linecap:butt;stroke-linejoin:miter;stroke:rgb(21.176471%,21.176471%,21.176471%);stroke-opacity:1;stroke-miterlimit:4;" d="M 2.967245 4.198817 C 1.785153 4.614625 0.501846 4.691023 0.198201 7.004264 C 0.279423 9.124631 1.337807 10.06145 2.979741 10.132839 " transform="matrix(3.126078,0,0,3.118933,-0.150841,0.728391)"/>
<path style="fill:none;stroke-width:0.3;stroke-linecap:butt;stroke-linejoin:miter;stroke:rgb(21.176471%,21.176471%,21.176471%);stroke-opacity:1;stroke-miterlimit:4;" d="M 14.54825 1.139127 C 12.155325 1.224292 12.001628 1.092787 8.554068 0.863592 L 5.296442 0.135929 C 4.37426 1.251846 2.593624 2.837424 2.583628 6.786341 C 2.573631 10.944415 4.296787 12.602634 5.30144 14.010368 C 9.225086 12.362167 12.850086 12.518721 14.530756 12.524984 L 28.75085 12.524984 C 30.43152 12.518721 34.057769 12.362167 37.980166 14.010368 C 38.984819 12.602634 40.707975 10.944415 40.697978 6.786341 C 40.687982 2.837424 38.907346 1.251846 37.986414 0.135929 L 34.727538 0.863592 C 31.279977 1.092787 31.12628 1.224292 28.733356 1.139127 Z M 14.54825 1.139127 " transform="matrix(3.126078,0,0,3.118933,-0.150841,0.728391)"/>
</g>
</svg>
