<?xml version="1.0" encoding="UTF-8"?>
<svg xmlns="http://www.w3.org/2000/svg" xmlns:xlink="http://www.w3.org/1999/xlink" width="20px" height="20px" viewBox="0 0 45 45" version="1.1">
<defs>
<linearGradient id="linear0" gradientUnits="userSpaceOnUse" x1="-5.44" y1="12.16" x2="-5.44" y2="30.08" gradientTransform="matrix(3.749999,0,0,3.125,36.546962,-89)">
<stop offset="0" style="stop-color:rgb(27.058824%,0.392157%,0%);stop-opacity:1;"/>
<stop offset="0.467635" style="stop-color:rgb(76.470588%,0%,0%);stop-opacity:1;"/>
<stop offset="1" style="stop-color:rgb(27.058824%,0.392157%,0%);stop-opacity:1;"/>
</linearGradient>
<linearGradient id="linear1" gradientUnits="userSpaceOnUse" x1="8.162232" y1="0.814272" x2="8.265284" y2="13.08" gradientTransform="matrix(3.126078,0,0,3.124312,-90.150841,0.653034)">
<stop offset="0" style="stop-color:rgb(79.607843%,67.058824%,44.705882%);stop-opacity:1;"/>
<stop offset="0.46009" style="stop-color:rgb(87.843137%,76.862745%,56.078431%);stop-opacity:1;"/>
<stop offset="1" style="stop-color:rgb(67.45098%,56.470588%,36.862745%);stop-opacity:1;"/>
</linearGradient>
<linearGradient id="linear2" gradientUnits="userSpaceOnUse" x1="8.485281" y1="3.583884" x2="8.485281" y2="5.771495" gradientTransform="matrix(3.126078,0,0,3.124312,-90.150841,0.653034)">
<stop offset="0" style="stop-color:rgb(88.627451%,79.215686%,61.568627%);stop-opacity:1;"/>
<stop offset="1" style="stop-color:rgb(90.588235%,82.352941%,65.490196%);stop-opacity:1;"/>
</linearGradient>
<linearGradient id="linear3" gradientUnits="userSpaceOnUse" x1="12" y1="13.705528" x2="12" y2="12.517932" gradientTransform="matrix(3.126078,0,0,3.124312,-90.150841,0.653034)">
<stop offset="0" style="stop-color:rgb(28.627451%,8.627451%,4.705882%);stop-opacity:1;"/>
<stop offset="1" style="stop-color:rgb(59.607843%,39.607843%,20%);stop-opacity:1;"/>
</linearGradient>
<linearGradient id="linear4" gradientUnits="userSpaceOnUse" x1="8.162232" y1="0.814272" x2="8.265284" y2="13.08" gradientTransform="matrix(-3.126059,0,0,3.124312,45.151297,0.653031)">
<stop offset="0" style="stop-color:rgb(79.607843%,67.058824%,44.705882%);stop-opacity:1;"/>
<stop offset="0.46009" style="stop-color:rgb(87.843137%,76.862745%,56.078431%);stop-opacity:1;"/>
<stop offset="1" style="stop-color:rgb(67.45098%,56.470588%,36.862745%);stop-opacity:1;"/>
</linearGradient>
<linearGradient id="linear5" gradientUnits="userSpaceOnUse" x1="7" y1="10.456078" x2="7" y2="8.614136" gradientTransform="matrix(3.126078,0,0,3.124312,-90.150841,0.653034)">
<stop offset="0" style="stop-color:rgb(78.039216%,69.019608%,51.372549%);stop-opacity:1;"/>
<stop offset="1" style="stop-color:rgb(82.745098%,73.333333%,55.686275%);stop-opacity:1;"/>
</linearGradient>
<linearGradient id="linear6" gradientUnits="userSpaceOnUse" x1="6.680893" y1="0.552842" x2="6.373914" y2="13.418021" gradientTransform="matrix(-3.126059,0,0,3.124312,45.151297,0.653031)">
<stop offset="0" style="stop-color:rgb(27.058824%,0.392157%,0%);stop-opacity:1;"/>
<stop offset="0.467635" style="stop-color:rgb(76.470588%,0%,0%);stop-opacity:1;"/>
<stop offset="1" style="stop-color:rgb(27.058824%,0.392157%,0%);stop-opacity:1;"/>
</linearGradient>
<linearGradient id="linear7" gradientUnits="userSpaceOnUse" x1="1.711872" y1="4.637956" x2="1.685124" y2="10.08" gradientTransform="matrix(-3.126059,0,0,3.124312,45.151297,0.653031)">
<stop offset="0" style="stop-color:rgb(28.627451%,8.627451%,4.705882%);stop-opacity:1;"/>
<stop offset="0.466992" style="stop-color:rgb(60%,40%,20%);stop-opacity:1;"/>
<stop offset="1" style="stop-color:rgb(28.627451%,8.627451%,4.705882%);stop-opacity:1;"/>
</linearGradient>
</defs>
<g id="surface1">
<path style=" stroke:none;fill-rule:nonzero;fill:rgb(82.745098%,78.431373%,63.529412%);fill-opacity:1;" d="M -64.636719 4.007812 L 19.539062 4.007812 L 19.539062 -49.515625 L -64.636719 -49.515625 Z M -64.636719 4.007812 "/>
<path style=" stroke:none;fill-rule:nonzero;fill:url(#linear0);" d="M 15.320312 -51 L 17.679688 -51 C 17.855469 -51 18 -50.855469 18 -50.679688 L 18 4.679688 C 18 4.855469 17.855469 5 17.679688 5 L 15.320312 5 C 15.144531 5 15 4.855469 15 4.679688 L 15 -50.679688 C 15 -50.855469 15.144531 -51 15.320312 -51 Z M 15.320312 -51 "/>
<path style="fill:none;stroke-width:0.436674;stroke-linecap:butt;stroke-linejoin:miter;stroke:rgb(21.176471%,21.176471%,21.176471%);stroke-opacity:1;stroke-miterlimit:4;" d="M 20.68375 13.0575 L 20.68375 29.60375 " transform="matrix(3.125,0,0,3.125,-45,-89)"/>
<path style=" stroke:none;fill-rule:nonzero;fill:url(#linear1);" d="M -67.457031 42.027344 L -67.617188 41.730469 C -67.703125 41.566406 -68.097656 41.109375 -68.492188 40.714844 C -69.730469 39.464844 -70.773438 37.851562 -72.675781 34.234375 C -73.539062 32.597656 -73.972656 31.671875 -74.246094 30.886719 C -75.097656 28.4375 -75.496094 25.464844 -75.511719 21.441406 C -75.519531 19.214844 -75.453125 18.566406 -75.046875 16.910156 C -74.140625 13.195312 -71.371094 8.242188 -68.226562 4.703125 C -67.800781 4.230469 -67.316406 3.652344 -67.144531 3.417969 C -66.96875 3.1875 -66.804688 2.96875 -66.773438 2.933594 C -66.746094 2.902344 -65.972656 3.035156 -65.054688 3.234375 C -63.644531 3.539062 -63.125 3.609375 -61.710938 3.703125 C -56.171875 4.074219 -51.59375 4.179688 -47.003906 4.035156 L -24.300781 3.972656 L 2.003906 4.035156 C 6.59375 4.179688 11.171875 4.074219 16.710938 3.703125 C 18.125 3.609375 18.644531 3.535156 20.054688 3.234375 C 20.96875 3.035156 21.746094 2.902344 21.777344 2.933594 C 21.804688 2.96875 21.972656 3.1875 22.144531 3.417969 C 22.316406 3.652344 22.800781 4.230469 23.222656 4.703125 C 26.371094 8.242188 29.140625 13.195312 30.046875 16.910156 C 30.453125 18.566406 30.519531 19.214844 30.511719 21.441406 C 30.496094 25.464844 30.097656 28.4375 29.246094 30.886719 C 28.972656 31.671875 28.539062 32.597656 27.675781 34.234375 C 25.773438 37.851562 24.730469 39.464844 23.492188 40.714844 C 23.097656 41.109375 22.703125 41.566406 22.617188 41.730469 L 22.457031 42.027344 L 20.671875 41.601562 C 17.34375 40.808594 14.011719 40.265625 10.4375 39.929688 C 7.867188 39.691406 6.273438 39.613281 2.914062 39.558594 L -24.273438 39.507812 L -47.910156 39.558594 C -51.273438 39.566406 -52.867188 39.691406 -55.4375 39.929688 C -59.007812 40.265625 -62.34375 40.808594 -65.671875 41.601562 Z M -67.457031 42.027344 "/>
<path style=" stroke:none;fill-rule:nonzero;fill:url(#linear2);" d="M -81.75 19.648438 L -80.148438 10.898438 L -68.269531 11.445312 L -22.9375 11.730469 L 23.269531 11.445312 L 35.148438 10.898438 L 36.75 19.648438 Z M -81.75 19.648438 "/>
<path style=" stroke:none;fill-rule:nonzero;fill:url(#linear3);" d="M -45.28125 43.59375 C -45.445312 43.582031 -46.269531 43.539062 -47.113281 43.496094 C -47.957031 43.453125 -50.675781 43.320312 -53.160156 43.203125 C -58.097656 42.96875 -58.207031 42.953125 -59.285156 42.300781 C -60.113281 41.800781 -61.011719 40.976562 -60.851562 40.863281 C -60.703125 40.761719 -57.941406 40.300781 -56.304688 40.105469 C -53.847656 39.816406 -52.496094 39.742188 -48.691406 39.679688 L -21.847656 39.621094 L 3.695312 39.679688 C 7.496094 39.742188 8.847656 39.816406 11.304688 40.105469 C 12.941406 40.300781 15.703125 40.761719 15.851562 40.863281 C 16.011719 40.976562 15.113281 41.800781 14.289062 42.300781 C 13.207031 42.953125 13.097656 42.96875 8.160156 43.203125 C 5.675781 43.320312 2.957031 43.453125 2.113281 43.496094 C 1.269531 43.539062 0.445312 43.582031 0.28125 43.59375 L -21.847656 43.609375 Z M -45.28125 43.59375 "/>
<path style=" stroke:none;fill-rule:nonzero;fill:url(#linear4);" d="M 30.683594 41.464844 C 32.753906 38.550781 32.578125 38.285156 33.589844 36.414062 C 35.71875 32.480469 36.710938 28.449219 36.851562 23.167969 C 37.058594 15.574219 35.4375 9.453125 31.027344 4.375 C 30.304688 3.542969 28.414062 1.328125 28.367188 1.328125 C 28.316406 1.328125 25.277344 2.273438 25.261719 2.289062 C 25.25 2.296875 25.417969 2.496094 25.632812 2.730469 C 28.339844 5.726562 31.222656 10.449219 32.488281 13.957031 C 33.582031 16.992188 33.441406 19.128906 33.292969 22.789062 C 33.09375 27.703125 32.9375 31.039062 31.640625 33.777344 C 31.148438 34.8125 29.304688 38.207031 28.640625 39.285156 C 27.640625 40.917969 26.683594 42.234375 25.984375 42.9375 L 25.660156 43.265625 L 26.832031 43.691406 L 28.578125 44.425781 Z M 30.683594 41.464844 "/>
<path style=" stroke:none;fill-rule:nonzero;fill:url(#linear5);" d="M -80.148438 33.898438 L -81.75 27.566406 L 36.75 27.566406 L 35.148438 33.898438 L 23.269531 33.503906 L -22.902344 33.289062 L -68.269531 33.503906 Z M -80.148438 33.898438 "/>
<path style=" stroke:none;fill-rule:nonzero;fill:url(#linear6);" d="M 31.171875 35.402344 C 32.144531 33.582031 32.777344 31.644531 33.191406 29.660156 C 34.328125 24.207031 34.175781 22.242188 33.878906 18.957031 C 33.613281 16.003906 32.179688 12.308594 31.683594 11.101562 C 30.203125 7.507812 28.410156 5.042969 25.46875 1.835938 L 24.902344 1.546875 L 23.109375 2.449219 C 22.234375 2.886719 21.363281 2.828125 21.351562 2.835938 C 21.328125 2.855469 22.09375 3.753906 22.800781 4.535156 C 26.078125 8.152344 28.5625 12.820312 29.519531 16.523438 C 30.085938 20.277344 30.945312 24.691406 29.058594 30.628906 C 28.527344 32.160156 26.144531 36.53125 24.734375 38.566406 C 24.152344 39.40625 23.695312 39.957031 22.9375 40.734375 C 22.550781 41.132812 22.1875 41.53125 22.128906 41.625 L 22.023438 41.796875 L 22.410156 41.898438 C 22.625 41.957031 23.425781 42.199219 24.1875 42.441406 C 24.953125 42.683594 25.65625 43.265625 25.660156 43.265625 C 27.375 41.519531 28.328125 40.640625 31.171875 35.402344 Z M 31.171875 35.402344 "/>
<path style="fill:none;stroke-width:0.3;stroke-linecap:butt;stroke-linejoin:miter;stroke:rgb(21.176471%,21.176471%,21.176471%);stroke-opacity:1;stroke-miterlimit:4;" d="M 2.967409 4.198817 C 1.78531 4.614625 0.501995 4.691023 0.198348 7.004264 C 0.27957 9.124631 1.337962 10.06145 2.979905 10.132839 " transform="matrix(-3.126059,0,0,3.118933,45.151297,0.728391)"/>
<path style="fill:none;stroke-width:0.300018;stroke-linecap:butt;stroke-linejoin:miter;stroke:rgb(21.176471%,21.176471%,21.176471%);stroke-opacity:1;stroke-miterlimit:4;" d="M 19.68375 41.4525 C 19.6325 41.67625 19.00875 42.25375 18.2925 42.345 L 14.3825 42.49875 L 0.0175 42.49875 L -3.8925 42.345 C -4.6075 42.25375 -5.2325 41.67625 -5.28375 41.4525 " transform="matrix(3.125,0,0,3.125,-45,-89)"/>
<path style=" stroke:none;fill-rule:nonzero;fill:url(#linear7);" d="M 36.289062 32.003906 C 36.359375 31.992188 36.710938 31.9375 37.066406 31.882812 C 41 31.296875 43.492188 28.835938 44.230469 24.804688 C 44.511719 23.25 44.53125 22.589844 44.324219 21.578125 C 43.882812 19.441406 43.042969 17.808594 41.84375 16.757812 C 41.171875 16.167969 40.671875 15.859375 39.695312 15.429688 C 38.949219 15.101562 36.628906 14.339844 36.5625 14.402344 C 36.546875 14.414062 36.632812 14.960938 36.753906 15.613281 C 37.183594 17.917969 37.273438 19.0625 37.273438 22.042969 C 37.269531 25.019531 37.167969 26.300781 36.757812 28.5625 C 36.574219 29.570312 36.148438 31.394531 35.976562 31.90625 C 35.933594 32.042969 35.984375 32.058594 36.289062 32.003906 Z M 36.289062 32.003906 "/>
<path style="fill:none;stroke-width:0.3;stroke-linecap:butt;stroke-linejoin:miter;stroke:rgb(21.176471%,21.176471%,21.176471%);stroke-opacity:1;stroke-miterlimit:4;" d="M 14.54825 1.139127 C 12.155325 1.224292 12.001628 1.092787 8.554068 0.863592 L 5.296442 0.135929 C 4.37426 1.251846 2.593624 2.837424 2.583628 6.786341 C 2.573631 10.944415 4.296787 12.602634 5.30144 14.010368 C 9.225086 12.362167 12.850086 12.518721 14.530756 12.524984 L 28.75085 12.524984 C 30.43152 12.518721 34.057769 12.362167 37.980166 14.010368 C 38.984819 12.602634 40.707975 10.944415 40.697978 6.786341 C 40.687982 2.837424 38.907346 1.251846 37.986414 0.135929 L 34.727538 0.863592 C 31.279977 1.092787 31.12628 1.224292 28.733356 1.139127 Z M 14.54825 1.139127 " transform="matrix(3.126078,0,0,3.118933,-90.150841,0.728391)"/>
</g>
</svg>
